Coordinates
version=1
nRows=19
nColumns=63
inDegrees=yes

Units are S.I. units (second, meters, Newtons, ...)
If the header above contains a line with 'inDegrees', this indicates whether rotational values are in degrees (yes) or radians (no).

endheader
time	pelvis_tilt	pelvis_list	pelvis_rotation	pelvis_tx	pelvis_ty	pelvis_tz	hip_flexion_r	hip_adduction_r	hip_rotation_r	knee_angle_r	knee_angle_r_beta	ankle_angle_r	subtalar_angle_r	mtp_angle_r	hip_flexion_l	hip_adduction_l	hip_rotation_l	knee_angle_l	knee_angle_l_beta	ankle_angle_l	subtalar_angle_l	mtp_angle_l	L5_S1_Flex_Ext	L5_S1_Lat_Bending	L5_S1_axial_rotation	L4_L5_Flex_Ext	L4_L5_Lat_Bending	L4_L5_axial_rotation	L3_L4_Flex_Ext	L3_L4_Lat_Bending	L3_L4_axial_rotation	L2_L3_Flex_Ext	L2_L3_Lat_Bending	L2_L3_axial_rotation	L1_L2_Flex_Ext	L1_L2_Lat_Bending	L1_L2_axial_rotation	L1_T12_Flex_Ext	L1_T12_Lat_Bending	L1_T12_axial_rotation	Abs_r3	Abs_r2	Abs_r1	Abs_t1	Abs_t2	neck_flexion	neck_bending	neck_rotation	arm_flex_r	arm_add_r	arm_rot_r	elbow_flex_r	pro_sup_r	wrist_flex_r	wrist_dev_r	arm_flex_l	arm_add_l	arm_rot_l	elbow_flex_l	pro_sup_l	wrist_flex_l	wrist_dev_l
2.576271	4.500404	-3.916679	127.458916	0.306002	0.586113	0.935553	7.295470	-2.406084	-23.623171	14.963039	0.261154	29.026846	5.709360	0.000000	8.191253	1.340976	2.293179	9.891119	0.172633	25.299555	14.013681	0.000000	0.170173	0.014676	-2.380447	0.316028	0.019519	-2.529225	0.279577	0.035683	-2.529225	0.194491	0.035683	-2.082891	0.158023	0.029927	-1.934113	0.097237	0.022733	-1.785335	1.215529	0.166016	-13.239330	0.000000	0.000000	19.934554	1.709620	0.988057	21.796116	-2.907745	6.850854	57.182877	84.412706	-11.615461	6.212067	23.873527	-3.880174	15.991147	58.800085	86.317045	-5.561868	25.581484
2.593220	4.426961	-3.727303	127.639648	0.305169	0.586622	0.934137	6.844972	-2.302878	-23.865322	14.718604	0.256888	28.951523	5.870760	0.000000	7.813969	1.253614	2.401456	9.712476	0.169515	25.218430	14.214678	0.000000	0.169490	0.007957	-2.418896	0.314761	0.010583	-2.570077	0.278456	0.019347	-2.570077	0.193711	0.019347	-2.116534	0.157389	0.016226	-1.965353	0.096847	0.012325	-1.814172	1.210654	0.090011	-13.453176	0.000000	0.000000	19.854834	1.594307	0.555143	21.262932	-3.210147	7.084447	56.921794	85.136785	-12.502260	6.394163	23.600812	-4.154403	16.078306	58.394920	86.187537	-5.661331	23.922399
2.610169	4.288824	-3.535794	127.775436	0.304248	0.587197	0.932447	6.328094	-2.244233	-24.049068	14.457655	0.252334	28.864592	6.004047	0.000000	7.354367	1.211569	2.470390	9.491076	0.165651	25.116927	14.430676	0.000000	0.168185	-0.004089	-2.463721	0.312336	-0.005438	-2.617703	0.276311	-0.009941	-2.617703	0.192219	-0.009941	-2.155756	0.156177	-0.008337	-2.001773	0.096101	-0.006333	-1.847791	1.201329	-0.046251	-13.702476	0.000000	0.000000	19.763744	1.530003	0.291508	20.610731	-3.552625	7.604145	56.425452	85.669375	-13.304917	6.390935	23.237867	-4.631627	16.491786	57.794146	86.149798	-5.970027	21.724679
2.627119	4.084725	-3.339635	127.837182	0.303260	0.587820	0.930502	5.749033	-2.236622	-24.207503	14.188980	0.247644	28.783155	6.191922	0.000000	6.810807	1.213753	2.467174	9.228629	0.161070	25.003589	14.670639	0.000000	0.165588	-0.020611	-2.506229	0.307513	-0.027412	-2.662868	0.272044	-0.050113	-2.662868	0.189250	-0.050113	-2.192950	0.153765	-0.042029	-2.036311	0.094617	-0.031926	-1.879672	1.182776	-0.233151	-13.938893	0.000000	0.000000	19.654748	1.512975	0.208363	19.842586	-3.951137	8.458348	55.675665	86.011831	-13.993185	6.221118	22.842914	-5.297077	17.449410	56.905487	86.203447	-6.630573	19.047668
2.644068	3.814076	-3.143113	127.806384	0.302217	0.588463	0.928327	5.119806	-2.287201	-24.332859	13.923671	0.243014	28.718231	6.449877	0.000000	6.186543	1.269561	2.432935	8.924136	0.155756	24.876883	14.854210	0.000000	0.161937	-0.041661	-2.538711	0.300733	-0.055409	-2.697380	0.266046	-0.101295	-2.697380	0.185077	-0.101295	-2.221372	0.150374	-0.084955	-2.062702	0.092531	-0.064533	-1.904033	1.156698	-0.471278	-14.119547	0.000000	0.000000	19.515625	1.525897	0.260784	18.971824	-4.405139	9.652467	54.649236	86.141109	-14.511980	5.934752	22.442690	-6.110021	19.117185	55.685190	86.341485	-7.834162	16.030648
2.661017	3.484827	-2.950301	127.655412	0.301147	0.589085	0.925958	4.459980	-2.397057	-24.415691	13.674034	0.238657	28.672891	6.799400	0.000000	5.491744	1.377076	2.332521	8.579746	0.149745	24.743310	14.996091	0.000000	0.156802	-0.065667	-2.554183	0.291197	-0.087337	-2.713820	0.257610	-0.159662	-2.713820	0.179209	-0.159662	-2.234910	0.145606	-0.133907	-2.075274	0.089597	-0.101718	-1.915637	1.120021	-0.742833	-14.205600	0.000000	0.000000	19.360044	1.575239	0.468645	18.036976	-4.916167	11.183376	53.319295	86.029041	-14.806424	5.584669	22.004084	-7.013938	21.403306	54.164638	86.555609	-9.581474	12.827272
2.677966	3.109996	-2.762773	127.385545	0.300064	0.589651	0.923467	3.787503	-2.551341	-24.375877	13.443467	0.234633	28.629860	7.138819	0.000000	4.744952	1.531618	2.211461	8.208548	0.143266	24.612577	15.034850	0.000000	0.149614	-0.090744	-2.547218	0.277848	-0.120690	-2.706419	0.245801	-0.220636	-2.706419	0.170994	-0.220636	-2.228816	0.138932	-0.185046	-2.069615	0.085489	-0.140563	-1.910414	1.068678	-1.026518	-14.166863	0.000000	0.000000	19.197830	1.656237	0.815500	17.075008	-5.490977	13.084083	51.679517	85.528997	-14.840875	5.194492	21.545134	-7.979582	24.348216	52.344436	86.821115	-11.887075	9.473369
2.694915	2.716451	-2.585723	126.999779	0.298964	0.590104	0.920937	3.135351	-2.744562	-24.238199	13.258000	0.231396	28.592106	7.491856	0.000000	3.973017	1.724908	2.109031	7.819654	0.136479	24.479922	14.893130	0.000000	0.141390	-0.113640	-2.516375	0.262575	-0.151141	-2.673649	0.232289	-0.276304	-2.673649	0.161594	-0.276304	-2.201828	0.131294	-0.231734	-2.044555	0.080790	-0.176028	-1.887281	1.009931	-1.285516	-13.995324	0.000000	0.000000	19.032911	1.703382	1.235289	16.146136	-6.121951	15.453362	49.720779	84.960269	-14.716202	4.807695	21.034624	-8.952357	27.843176	50.324761	87.107183	-14.640702	6.243764
2.711864	2.324830	-2.433581	126.521776	0.297844	0.590408	0.918454	2.533943	-2.968051	-24.000161	13.125220	0.229078	28.543574	7.809435	0.000000	3.215945	1.944584	1.977068	7.436277	0.129788	24.356322	14.684496	0.000000	0.132865	-0.132278	-2.467305	0.246743	-0.175930	-2.621512	0.218283	-0.321621	-2.621512	0.151851	-0.321621	-2.158892	0.123378	-0.269742	-2.004685	0.075919	-0.204899	-1.850479	0.949038	-1.496357	-13.722411	0.000000	0.000000	18.906110	1.736038	1.765448	15.261892	-6.793491	18.130787	47.480876	84.338680	-14.334884	4.462314	20.405114	-9.898808	31.616739	48.139823	87.415493	-17.721127	3.142176
2.728814	1.957669	-2.292511	125.953666	0.296714	0.590562	0.916051	1.991260	-3.194050	-23.640308	13.050808	0.227780	28.464299	8.035139	0.000000	2.475739	2.171671	1.887675	7.059599	0.123213	24.234659	14.297800	0.000000	0.122630	-0.143856	-2.396757	0.227736	-0.191328	-2.546555	0.201469	-0.349771	-2.546555	0.140154	-0.349771	-2.097163	0.113874	-0.293351	-1.947365	0.070071	-0.222833	-1.797568	0.875934	-1.627325	-13.330046	0.000000	0.000000	18.818690	1.714121	2.323043	14.463326	-7.533058	21.315624	45.012946	83.825547	-13.885981	4.111241	19.684352	-10.790680	35.761242	45.821122	87.713847	-21.022742	0.352793
2.745763	1.636777	-2.149062	125.323804	0.295571	0.590570	0.913761	1.498515	-3.397690	-23.216434	13.014244	0.227141	28.354545	8.202125	0.000000	1.765316	2.382754	1.863595	6.707377	0.117066	24.126111	13.732221	0.000000	0.109498	-0.146181	-2.311484	0.203348	-0.194420	-2.455952	0.179894	-0.355424	-2.455952	0.125145	-0.355424	-2.022549	0.101679	-0.298092	-1.878081	0.062567	-0.226434	-1.733613	0.782130	-1.653626	-12.855783	0.000000	0.000000	18.775054	1.634066	2.873248	13.741422	-8.346275	24.921609	42.391459	83.456473	-13.411619	3.695870	18.854288	-11.588473	40.099264	43.399421	87.984292	-24.334844	-1.985950
2.762712	1.346869	-2.002401	124.665779	0.294472	0.590409	0.911638	1.063577	-3.586123	-22.703560	13.038683	0.227568	28.249737	8.231841	0.000000	1.083992	2.585749	1.930096	6.376592	0.111293	24.026676	13.001835	0.000000	0.091922	-0.142974	-2.212722	0.170709	-0.190156	-2.351017	0.151019	-0.347628	-2.351017	0.105058	-0.347628	-1.936131	0.085359	-0.291553	-1.797836	0.052524	-0.221467	-1.659541	0.656591	-1.617355	-12.306494	0.000000	0.000000	18.773030	1.529311	3.371554	12.984081	-9.184974	28.306102	39.757485	83.758421	-12.934665	3.252255	17.915283	-12.612124	39.530331	41.822537	92.645693	-27.733296	-3.489763
2.779661	1.129460	-1.843513	124.000056	0.293335	0.590111	0.909735	0.687245	-3.731277	-22.261816	13.097885	0.228601	28.159718	8.320291	0.000000	0.456331	2.740890	2.041250	6.073894	0.106009	23.961588	12.186650	0.000000	0.071404	-0.128340	-2.109888	0.132605	-0.170692	-2.241756	0.117310	-0.312046	-2.241756	0.081608	-0.312046	-1.846152	0.066306	-0.261711	-1.714284	0.040800	-0.198799	-1.582416	0.510034	-1.451809	-11.734563	0.000000	0.000000	18.836765	1.363331	3.843298	12.251861	-10.100637	31.840009	37.147743	83.817703	-12.436144	2.639506	16.961871	-13.270431	41.964089	39.551395	94.702581	-30.561712	-4.530362
2.796610	0.962121	-1.681133	123.355943	0.292204	0.589669	0.908099	0.378252	-3.858604	-21.910612	13.211566	0.230585	28.125956	8.462283	0.000000	-0.107726	2.868839	2.197589	5.806579	0.101344	23.936333	11.322875	0.000000	0.047573	-0.107319	-2.007604	0.088348	-0.142734	-2.133080	0.078158	-0.260936	-2.133080	0.054371	-0.260936	-1.756654	0.044176	-0.218845	-1.631179	0.027183	-0.166237	-1.505703	0.339811	-1.214014	-11.165693	0.000000	0.000000	18.967441	1.162301	4.243141	11.525793	-11.055983	35.320031	34.629853	83.557480	-11.882451	1.876766	16.009167	-13.603306	46.958160	36.729541	94.518161	-32.621183	-5.016083
2.813559	0.868034	-1.508393	122.752666	0.291015	0.589038	0.906764	0.129545	-3.940984	-21.680679	13.347903	0.232965	28.159782	8.696915	0.000000	-0.610260	2.951407	2.533648	5.546502	0.096805	23.943134	10.263315	0.000000	0.020541	-0.076890	-1.904212	0.038147	-0.102264	-2.023226	0.033747	-0.186950	-2.023226	0.023476	-0.186950	-1.666186	0.019074	-0.156794	-1.547173	0.011737	-0.119102	-1.428159	0.146722	-0.869794	-10.590658	0.000000	0.000000	19.209847	0.908025	4.547793	10.463961	-12.273846	34.549821	32.958017	86.513635	-11.652325	1.615734	15.075231	-13.608749	54.081287	33.509045	92.421400	-33.908483	-4.952989
2.830508	0.798533	-1.364606	122.211798	0.289989	0.588292	0.905745	-0.030270	-4.033874	-21.545788	13.532578	0.236188	28.276924	8.981162	0.000000	-1.011644	3.029592	2.822122	5.330706	0.093038	24.003987	9.345070	0.000000	-0.007671	-0.049315	-1.806527	-0.014246	-0.065589	-1.919435	-0.012603	-0.119905	-1.919435	-0.008767	-0.119905	-1.580711	-0.007123	-0.100563	-1.467803	-0.004383	-0.076389	-1.354895	-0.054794	-0.557861	-10.047359	0.000000	0.000000	19.536254	0.642167	4.676073	9.615025	-13.297381	35.743970	31.044603	87.254743	-11.266271	1.093779	14.188346	-13.394674	62.937212	30.008671	88.710542	-34.318717	-4.463715
2.847458	0.752809	-1.261567	121.751235	0.289146	0.587460	0.905057	-0.096282	-4.135135	-21.484293	13.749224	0.239969	28.455205	9.262908	0.000000	-1.298592	3.108087	3.063143	5.156634	0.090000	24.106945	8.581773	0.000000	-0.035298	-0.026043	-1.720114	-0.065552	-0.034637	-1.827622	-0.057992	-0.063321	-1.827622	-0.040342	-0.063321	-1.505100	-0.032778	-0.053107	-1.397593	-0.020169	-0.040341	-1.290086	-0.252132	-0.294606	-9.566760	0.000000	0.000000	19.955505	0.384004	4.653641	8.993806	-14.112005	38.589732	29.004028	86.029436	-10.794429	0.425123	13.365201	-13.011087	73.137630	26.348974	83.566087	-33.849005	-3.663964
2.864407	0.731501	-1.206106	121.373308	0.288506	0.586582	0.904678	-0.072062	-4.247611	-21.531876	13.987627	0.244130	28.674233	9.604012	0.000000	-1.464993	3.183664	3.224984	5.028930	0.087771	24.254282	8.020070	0.000000	-0.060730	-0.007663	-1.649827	-0.112781	-0.010192	-1.752941	-0.099773	-0.018632	-1.752941	-0.069408	-0.018632	-1.443599	-0.056393	-0.015626	-1.340484	-0.034701	-0.011870	-1.237370	-0.433785	-0.086684	-9.175843	0.000000	0.000000	20.462512	0.116623	4.489661	8.625427	-14.723443	42.578313	26.984612	83.137285	-10.262775	-0.337668	12.589481	-12.502805	84.498893	22.621477	77.060468	-32.513453	-2.637783
2.881356	0.735457	-1.203710	121.078515	0.288082	0.585714	0.904580	0.038454	-4.352638	-21.583975	14.226696	0.248303	28.880782	9.853022	0.000000	-1.513432	3.254514	3.309055	4.941811	0.086251	24.420679	7.641479	0.000000	-0.082403	0.005971	-1.602714	-0.153031	0.007942	-1.702883	-0.135380	0.014518	-1.702883	-0.094179	0.014518	-1.402374	-0.076520	0.012176	-1.302205	-0.047085	0.009249	-1.202035	-0.588597	0.067547	-8.913813	0.000000	0.000000	21.035825	-0.125789	4.276299	8.532411	-15.101364	47.607051	25.016128	78.793015	-9.667718	-1.182994	11.848127	-11.904075	96.474485	18.936267	69.526219	-30.418676	-1.509186
